<svg width="42" height="21" viewBox="0 0 42 21" fill="none" xmlns="http://www.w3.org/2000/svg">
<g filter="url(#filter0_d_1_3)">
<path fill-rule="evenodd" clip-rule="evenodd" d="M0 0H42V21H0V0Z" fill="white"/>
<path fill-rule="evenodd" clip-rule="evenodd" d="M39.6583 1.80566C39.7995 1.80566 39.9278 1.86127 40.0204 1.95109C40.1133 2.04101 40.1707 2.16528 40.1707 2.30208C40.1707 2.43888 40.1133 2.56311 40.0206 2.65289C39.9278 2.74285 39.7995 2.79844 39.6583 2.79844C39.5171 2.79844 39.3889 2.74285 39.2962 2.65302C39.2034 2.56311 39.146 2.43888 39.146 2.30208C39.146 2.16528 39.2034 2.04101 39.2961 1.95123C39.3889 1.86127 39.5171 1.80566 39.6583 1.80566ZM39.972 1.99812C39.8918 1.92043 39.7809 1.87234 39.6583 1.87234C39.5357 1.87234 39.4248 1.92043 39.3447 1.99807C39.2644 2.0758 39.2148 2.18332 39.2148 2.30208C39.2148 2.42079 39.2644 2.5283 39.3446 2.60591C39.4248 2.68369 39.5358 2.73178 39.6583 2.73178C39.7809 2.73178 39.8918 2.68369 39.9719 2.60604C40.0522 2.5283 40.1019 2.42084 40.1019 2.30208C40.1019 2.18332 40.0522 2.0758 39.972 1.99812Z" fill="#9A9A99"/>
<path fill-rule="evenodd" clip-rule="evenodd" d="M39.5112 2.1036C39.5112 2.09211 39.5137 2.08361 39.5187 2.07809C39.5237 2.07258 39.5328 2.06982 39.546 2.06982H39.7024C39.7242 2.06982 39.7439 2.07301 39.7615 2.07943C39.779 2.08583 39.7941 2.09487 39.8068 2.10658C39.8196 2.11829 39.8294 2.13208 39.8362 2.14797C39.8431 2.16389 39.8464 2.18132 39.8464 2.20031C39.8464 2.22683 39.8396 2.25011 39.826 2.27021C39.8123 2.29031 39.7934 2.30478 39.7693 2.3136V2.31626C39.788 2.322 39.8014 2.3305 39.8096 2.34176C39.8178 2.35302 39.8242 2.36683 39.8287 2.38316L39.8683 2.52296C39.8692 2.52515 39.8693 2.52771 39.8686 2.53058C39.868 2.53345 39.8651 2.53487 39.8601 2.53487H39.815C39.8128 2.53487 39.8104 2.53439 39.8079 2.53354C39.8054 2.53265 39.8037 2.53024 39.8028 2.52626L39.7665 2.39973C39.7629 2.38691 39.7581 2.37633 39.7522 2.36792C39.7463 2.35953 39.7394 2.35291 39.7314 2.34805C39.7234 2.34318 39.7146 2.33988 39.7048 2.33812C39.695 2.33636 39.6844 2.33546 39.673 2.33546H39.5754V2.52361C39.5754 2.52847 39.5745 2.53154 39.5727 2.53288C39.5708 2.53422 39.5674 2.53487 39.5624 2.53487H39.5242C39.5196 2.53487 39.5164 2.53423 39.5143 2.53288C39.5123 2.53154 39.5112 2.52847 39.5112 2.52361V2.1036ZM39.7836 2.20298C39.7836 2.19413 39.7823 2.18519 39.7795 2.17614C39.7768 2.16707 39.772 2.1588 39.7652 2.1513C39.7584 2.1438 39.7493 2.13771 39.7379 2.13308C39.7265 2.12844 39.7122 2.12611 39.6949 2.12611H39.5761V2.28246H39.6901C39.7065 2.28246 39.7206 2.28036 39.7324 2.27618C39.7443 2.27197 39.7539 2.26623 39.7615 2.25895C39.7689 2.25167 39.7745 2.24326 39.7782 2.23376C39.7818 2.22427 39.7836 2.21401 39.7836 2.20298Z" fill="#9A9A99"/>
<path fill-rule="evenodd" clip-rule="evenodd" d="M12.1957 2.80859L10.4571 6.75549L11.9077 6.7302V16.7031H10.7111V18.1596H11.9077H13.555H14.3327V16.7031H13.555V2.80859H12.1957Z" fill="#FAC900"/>
<path fill-rule="evenodd" clip-rule="evenodd" d="M3.13647 2.80859V9.9947H4.79973V6.94085H6.99945L8.9439 9.9947H10.9291L8.38071 6.13533L10.7546 2.80859H8.82307L6.95919 5.45948H4.79973V2.80859H3.13647Z" fill="#00B4B5"/>
<path fill-rule="evenodd" clip-rule="evenodd" d="M3.70971 13.4458H5.04956V11.6284H3.17371V13.4458H3.70971ZM3.44176 12.9265V11.888H4.7816V13.1862H3.44176V12.9265Z" fill="#0A0B0E"/>
<path fill-rule="evenodd" clip-rule="evenodd" d="M3.97764 15.0038V14.7442H3.70972V15.0038H3.44176V14.7442H3.70972V14.2249H3.44176V13.7056H3.17371V16.0423H3.44176V15.2634H3.70972V15.523H4.24559V15.2634H3.97764V15.0038Z" fill="#0A0B0E"/>
<path fill-rule="evenodd" clip-rule="evenodd" d="M4.51365 16.3018H3.17371V18.1192H5.04956V16.3018H4.51365ZM4.7816 16.8211V17.8596H3.44176V16.5615H4.7816V16.8211Z" fill="#0A0B0E"/>
<path fill-rule="evenodd" clip-rule="evenodd" d="M4.24559 12.9262H4.51365V12.1475H3.70972V12.9262H4.24559Z" fill="#0A0B0E"/>
<path fill-rule="evenodd" clip-rule="evenodd" d="M3.97764 13.9653H5.04956V13.7056H3.70972V14.2249H3.97764V13.9653Z" fill="#0A0B0E"/>
<path fill-rule="evenodd" clip-rule="evenodd" d="M4.24559 16.0418V15.7822H3.70972V16.0418H4.24559Z" fill="#0A0B0E"/>
<path fill-rule="evenodd" clip-rule="evenodd" d="M3.97764 16.8208H3.70972V17.5997H4.51365V16.8208H3.97764Z" fill="#0A0B0E"/>
<path fill-rule="evenodd" clip-rule="evenodd" d="M5.04952 15.5226V15.263H4.78156V15.0033H5.5855V13.9648H5.31758V14.484H5.04952V14.7438H4.78156V14.484H5.04952V14.2244H3.9776V14.484H4.51361V14.7438H4.24555V15.263H4.51361V15.7823H4.78156V15.5226H5.04952Z" fill="#0A0B0E"/>
<path fill-rule="evenodd" clip-rule="evenodd" d="M5.31757 15.5229H5.04951V15.7827H4.78156V16.0422H5.31757V15.5229Z" fill="#0A0B0E"/>
<path fill-rule="evenodd" clip-rule="evenodd" d="M6.12149 13.9649V13.7052H5.85343V13.4456H5.58548V12.9262H5.85343V12.4071H5.58548V12.1475H5.31757V13.7052H5.58548V13.9649H6.12149Z" fill="#0A0B0E"/>
<path fill-rule="evenodd" clip-rule="evenodd" d="M5.58548 15.0034V15.263H5.31757V15.5226H5.85344V15.263H6.12149V15.0034H5.58548Z" fill="#0A0B0E"/>
<path fill-rule="evenodd" clip-rule="evenodd" d="M6.12149 15.7827V15.5229H5.85343V16.0422H5.31757V16.3019H6.12149V15.7827Z" fill="#0A0B0E"/>
<path fill-rule="evenodd" clip-rule="evenodd" d="M5.85343 16.8211H5.58548V16.5615H5.31757V17.6H5.58548V17.3404H5.85343V17.6H5.58548V17.8596H6.12149V17.0807H5.85343V16.8211Z" fill="#0A0B0E"/>
<path fill-rule="evenodd" clip-rule="evenodd" d="M5.31757 18.119H5.58516V17.8594H5.31757V18.119Z" fill="#0A0B0E"/>
<path fill-rule="evenodd" clip-rule="evenodd" d="M5.85346 11.888H6.12152V12.4073H6.6574V12.1477H6.38948V11.888H6.6574V12.1477H7.19341V12.4073H6.6574V12.6669H7.46137V12.4073H7.72928V11.888H6.92535V11.6284H5.58551V12.1477H5.85346V11.888Z" fill="#0A0B0E"/>
<path fill-rule="evenodd" clip-rule="evenodd" d="M6.12151 13.186H6.38947V12.9263H5.85345V13.4456H6.12151V13.186Z" fill="#0A0B0E"/>
<path fill-rule="evenodd" clip-rule="evenodd" d="M6.92534 13.4456V13.7053H6.38947V13.965H6.65739V14.2246H6.38947V13.965H6.12151V14.2246H5.85345V14.7439H6.12151V14.4842H6.92534V14.7439H6.65739V15.0035H6.38947V15.2631H6.92534V15.0035H7.1934V14.4842H7.46136V14.7439H7.72928V15.0035H8.26529V14.4842H7.72928V13.965H7.46136V14.2246H6.92534V13.965H7.1934V13.186H6.92534V13.4456Z" fill="#0A0B0E"/>
<path fill-rule="evenodd" clip-rule="evenodd" d="M8.8012 15.263H8.53325V15.0034H8.26529V15.263H7.99723V15.5226H8.26529V15.7824H7.72928V15.0034H7.46136V15.263H6.92534V15.7824H7.46136V16.0419H7.1934V16.3016H7.46136V16.5613H7.1934V16.3016H6.92534V15.7824H6.65739V15.5226H6.38947V16.0419H6.65739V16.3016H6.12151V16.5613H5.85345V16.8209H6.12151V17.0805H6.38947V16.5613H6.92534V16.8209H7.1934V17.3402H6.92534V17.0805H6.38947V17.3402H6.65739V17.5998H6.38947V18.119H6.65739V17.8594H6.92534V17.5998H7.46136V17.3402H8.26529V17.0805H8.53325V17.3402H8.8012V17.5998H7.46136V17.8594H7.72928V18.119H9.87318V16.8209H9.06926V17.0805H8.8012V16.8209H9.06926V16.5613H8.8012V16.3016H9.06926V16.0419H8.8012V15.5226H9.06926V15.0034H8.8012V15.263ZM8.53325 16.3016V16.8209H7.72928V16.0419H8.53325V16.3016ZM9.06926 17.5998H9.33718V17.3402H9.60513V17.8594H9.06926V17.5998Z" fill="#0A0B0E"/>
<path fill-rule="evenodd" clip-rule="evenodd" d="M6.12152 15.0037H6.38912V14.7441H6.12152V15.0037Z" fill="#0A0B0E"/>
<path fill-rule="evenodd" clip-rule="evenodd" d="M6.38947 13.4456H6.65705V13.186H6.38947V13.4456Z" fill="#0A0B0E"/>
<path fill-rule="evenodd" clip-rule="evenodd" d="M6.65741 13.186H6.925V12.9263H6.65741V13.186Z" fill="#0A0B0E"/>
<path fill-rule="evenodd" clip-rule="evenodd" d="M6.92535 18.119H7.19308V17.8594H6.92535V18.119Z" fill="#0A0B0E"/>
<path fill-rule="evenodd" clip-rule="evenodd" d="M7.19342 13.186H7.46099V12.9263H7.19342V13.186Z" fill="#0A0B0E"/>
<path fill-rule="evenodd" clip-rule="evenodd" d="M7.46136 12.9266H7.72895V12.667H7.46136V12.9266Z" fill="#0A0B0E"/>
<path fill-rule="evenodd" clip-rule="evenodd" d="M7.46136 13.7053H7.72892V13.186H7.46136V13.7053Z" fill="#0A0B0E"/>
<path fill-rule="evenodd" clip-rule="evenodd" d="M9.60516 11.6284H7.99725V13.4458H9.87321V11.6284H9.60516ZM9.60516 12.1477V13.1862H8.26531V11.888H9.60516V12.1477Z" fill="#0A0B0E"/>
<path fill-rule="evenodd" clip-rule="evenodd" d="M8.53327 14.7442V15.0038H8.80122V14.4845H9.06928V14.2249H8.53327V13.9653H9.3372V13.7056H7.99725V13.9653H8.26531V14.4845H8.53327V14.7442Z" fill="#0A0B0E"/>
<path fill-rule="evenodd" clip-rule="evenodd" d="M7.99725 16.5615H8.26498V16.3018H7.99725V16.5615Z" fill="#0A0B0E"/>
<path fill-rule="evenodd" clip-rule="evenodd" d="M8.80122 12.1475H8.53326V12.9262H9.33719V12.1475H8.80122Z" fill="#0A0B0E"/>
<path fill-rule="evenodd" clip-rule="evenodd" d="M9.60515 13.9648H9.33719V14.484H9.60515V14.7438H9.06927V15.0033H9.33719V15.5226H9.60515V15.7823H9.8732V15.263H9.60515V15.0033H9.8732V14.2244H9.60515V13.9648Z" fill="#0A0B0E"/>
<path fill-rule="evenodd" clip-rule="evenodd" d="M9.06927 16.0418H9.33686V15.7822H9.06927V16.0418Z" fill="#0A0B0E"/>
<path fill-rule="evenodd" clip-rule="evenodd" d="M9.33719 16.5615H9.8732V16.3018H9.06927V16.5615H9.33719Z" fill="#0A0B0E"/>
<path fill-rule="evenodd" clip-rule="evenodd" d="M16.602 6.99302H20.0486C20.5316 6.99302 20.8666 7.29182 20.8666 7.75992C20.8666 8.20154 20.545 8.52637 20.0087 8.52637H16.602V6.99302ZM16.602 4.26394H19.6196C20.1829 4.26394 20.357 4.61495 20.357 4.9268C20.357 5.25174 20.1157 5.57657 19.7536 5.57657H16.602V4.26394ZM14.9252 2.80859V9.99476H20.0624C21.4701 9.99476 22.503 8.99403 22.503 7.75992C22.503 6.87621 22.1005 6.29114 21.4165 5.95355C21.8058 5.6937 21.9935 5.25174 21.9935 4.73203C21.9935 3.56251 21.0411 2.80859 19.6998 2.80859H14.9252Z" fill="#931413"/>
<path fill-rule="evenodd" clip-rule="evenodd" d="M23.6163 2.80859V9.9947H30.5369V8.49996H25.2931V7.07064H29.8393V5.60259H25.2931V4.27698H30.3488V2.80859H23.6163Z" fill="#9A9A99"/>
<path fill-rule="evenodd" clip-rule="evenodd" d="M33.4603 4.28996H36.0893C36.9473 4.28996 37.5373 4.79707 37.5373 5.62861C37.5373 6.46015 36.9473 6.91483 36.0893 6.91483H33.4603V4.28996ZM31.7837 2.80859V9.9947H33.4603V8.39625H36.2232L37.095 9.9947H38.919L37.7791 8.01966C38.6505 7.5646 39.2141 6.73305 39.2141 5.62861C39.2141 3.93911 37.8996 2.80859 36.156 2.80859H31.7837Z" fill="#005069"/>
<path fill-rule="evenodd" clip-rule="evenodd" d="M22.3392 14.7217C22.3392 12.5587 20.6551 11.1167 18.6628 11.1167C16.6705 11.1167 14.9863 12.5587 14.9863 14.7217C14.9863 16.8851 16.6705 18.3271 18.6628 18.3271C20.6551 18.3271 22.3392 16.8851 22.3392 14.7217ZM16.4691 14.7217C16.4691 13.3043 17.4296 12.4463 18.6628 12.4463C19.896 12.4463 20.8569 13.3043 20.8569 14.7217C20.8569 16.1392 19.896 16.9967 18.6628 16.9967C17.4296 16.9967 16.4691 16.1392 16.4691 14.7217Z" fill="#0A0B0E"/>
<path fill-rule="evenodd" clip-rule="evenodd" d="M23.209 11.2847V18.1599H24.7872V13.5225L29.0348 18.1599H30.562V11.2847H28.971V15.9095L24.7236 11.2847H23.209Z" fill="#0A0B0E"/>
<path fill-rule="evenodd" clip-rule="evenodd" d="M31.9301 11.2847V18.1599H38.5515V16.7299H33.5344V15.3622H37.8846V13.9575H33.5344V12.6894H38.3718V11.2847H31.9301Z" fill="#0A0B0E"/>
<path fill-rule="evenodd" clip-rule="evenodd" d="M1.27029 1.23313H40.7291V19.7669H1.27029V1.23313ZM0.717468 0.677246H41.2824V20.3231H0.717468V0.677246Z" fill="#9A9A99"/>
</g>
<defs>
<filter id="filter0_d_1_3" x="-4" y="0" width="50" height="29" filterUnits="userSpaceOnUse" color-interpolation-filters="sRGB">
<feFlood flood-opacity="0" result="BackgroundImageFix"/>
<feColorMatrix in="SourceAlpha" type="matrix" values="0 0 0 0 0 0 0 0 0 0 0 0 0 0 0 0 0 0 127 0" result="hardAlpha"/>
<feOffset dy="4"/>
<feGaussianBlur stdDeviation="2"/>
<feComposite in2="hardAlpha" operator="out"/>
<feColorMatrix type="matrix" values="0 0 0 0 0 0 0 0 0 0 0 0 0 0 0 0 0 0 0.25 0"/>
<feBlend mode="normal" in2="BackgroundImageFix" result="effect1_dropShadow_1_3"/>
<feBlend mode="normal" in="SourceGraphic" in2="effect1_dropShadow_1_3" result="shape"/>
</filter>
</defs>
</svg>
